<?xml version="1.0" encoding="UTF-8" standalone="no"?>
<!-- Created with Inkscape (http://www.inkscape.org/) -->

<svg
   width="32"
   height="32"
   viewBox="0 0 8.4666668 8.4666668"
   version="1.1"
   id="svg1"
   inkscape:version="1.4.3 (0d15f75, 2025-12-25)"
   sodipodi:docname="icon.svg"
   xmlns:inkscape="http://www.inkscape.org/namespaces/inkscape"
   xmlns:sodipodi="http://sodipodi.sourceforge.net/DTD/sodipodi-0.dtd"
   xmlns="http://www.w3.org/2000/svg"
   xmlns:svg="http://www.w3.org/2000/svg">
  <sodipodi:namedview
     id="namedview1"
     pagecolor="#ffffff"
     bordercolor="#000000"
     borderopacity="0.25"
     inkscape:showpageshadow="2"
     inkscape:pageopacity="0.0"
     inkscape:pagecheckerboard="0"
     inkscape:deskcolor="#d1d1d1"
     inkscape:document-units="px"
     inkscape:zoom="21.279075"
     inkscape:cx="11.349178"
     inkscape:cy="19.83169"
     inkscape:window-width="3440"
     inkscape:window-height="1321"
     inkscape:window-x="0"
     inkscape:window-y="0"
     inkscape:window-maximized="0"
     inkscape:current-layer="svg1" />
  <defs
     id="defs1" />
  <path
     id="text2"
     style="font-size:3.175px;font-family:'SF Pro';-inkscape-font-specification:'SF Pro';text-align:center;text-anchor:middle;fill:#c8c8c8;fill-opacity:1;stroke-width:0.649353;stroke-linecap:round;stroke-opacity:0.501437"
     d="M 3.8690145 0.59531251 C 3.7249495 0.59531251 3.5881337 0.60973911 3.4587037 0.63872071 C 3.3317157 0.66770231 3.2095238 0.71645477 3.0923178 0.78496502 C 2.9775428 0.85347002 2.8699738 0.94452399 2.7698568 1.0578166 L 0.61236573 3.4762737 C 0.53178573 3.5632187 0.46624876 3.649307 0.41496176 3.7336223 C 0.36367176 3.8179343 0.32568261 3.9005055 0.30127361 3.9821859 C 0.27685361 4.0612329 0.26458334 4.1433337 0.26458334 4.227649 C 0.26458334 4.3488571 0.29264592 4.4712384 0.34881592 4.5950684 C 0.40498592 4.7162775 0.49271773 4.8441402 0.61236573 4.9785076 L 2.7734742 7.3850791 C 2.8736002 7.4983728 2.9811701 7.5909216 3.0959351 7.6620647 C 3.2131401 7.7332127 3.335333 7.7844483 3.462321 7.8160605 C 3.591739 7.8503075 3.7285539 7.8672202 3.8726319 7.8672202 L 7.0517661 7.8713543 C 7.4351491 7.8713543 7.7222244 7.7683607 7.9126954 7.562846 C 8.1056074 7.3599651 8.2020835 7.0545017 8.2020835 6.6461061 L 8.2020835 1.8205607 C 8.2020835 1.4121651 8.1056074 1.1067017 7.9126954 0.90382082 C 7.7222244 0.698305 7.4351491 0.59531251 7.0517661 0.59531251 L 3.8690145 0.59531251 z M 4.6922201 2.2489584 C 4.9133471 2.2489584 5.1177946 2.2882141 5.3051026 2.3662639 C 5.4924096 2.4417099 5.6428054 2.5533522 5.7572714 2.7016439 C 5.8743394 2.8499351 5.9329713 3.0319309 5.9329713 3.2478638 C 5.9329713 3.4820092 5.8717859 3.6670684 5.7495199 3.8023519 C 5.6272439 3.9376351 5.4727726 4.0676315 5.2854656 4.192509 C 5.1475866 4.283563 5.0461304 4.3692077 4.9810914 4.4498577 C 4.9160514 4.5279067 4.8834229 4.6217104 4.8834229 4.7309775 L 4.8834229 4.7542318 L 4.8834229 4.7774862 C 4.8834229 4.8529352 4.85487 4.9181897 4.79764 4.9728232 C 4.74301 5.0274582 4.6675543 5.0549887 4.5712973 5.0549887 C 4.3631783 5.0549887 4.2591716 4.9520072 4.2591716 4.7464804 L 4.2591716 4.723226 L 4.2591716 4.6958375 C 4.2591716 4.503319 4.3045494 4.3483385 4.3955974 4.2312663 C 4.4892474 4.1141922 4.6065161 4.0076499 4.7469971 3.9113892 C 4.9186951 3.7917148 5.0461558 3.690266 5.1294028 3.607015 C 5.2126528 3.52116 5.253943 3.4120675 5.253943 3.2793864 C 5.253943 3.1310952 5.2009248 3.0112911 5.0942628 2.9202352 C 4.9876008 2.8265772 4.8443346 2.7796753 4.6648316 2.7796753 C 4.5789816 2.7796753 4.4984279 2.7939388 4.4229859 2.8225668 C 4.3501459 2.8511848 4.2838656 2.8929885 4.2240316 2.9476237 C 4.1641976 2.9996577 4.1106598 3.0633798 4.0638347 3.1388265 L 3.9935548 3.2323609 C 3.9597358 3.2791899 3.9194591 3.316912 3.8726319 3.3455323 C 3.8284049 3.3741503 3.773855 3.3884237 3.7088176 3.3884237 C 3.6437796 3.3884237 3.5826009 3.3665179 3.5253663 3.3222779 C 3.4681333 3.2754509 3.4395834 3.2076434 3.4395834 3.1191895 C 3.4395834 3.0853695 3.4421049 3.052738 3.4473349 3.021521 C 3.4525649 2.9903 3.4601932 2.9592077 3.4705892 2.9279867 C 3.5252192 2.7484746 3.6582933 2.5909477 3.8690145 2.4556641 C 4.0823362 2.3177791 4.3566271 2.2489584 4.6922201 2.2489584 z M 4.5594117 5.4058717 C 4.6738767 5.4058717 4.7727854 5.4451273 4.8560344 5.5231772 C 4.9392844 5.6012252 4.9810914 5.6975791 4.9810914 5.8120484 C 4.9810914 5.9265191 4.9392864 6.0223552 4.8560344 6.1004029 C 4.7727844 6.1784509 4.6738777 6.2177093 4.5594117 6.2177084 C 4.4475487 6.2177084 4.3501711 6.1784527 4.2669231 6.1004029 C 4.1836731 6.0197549 4.1418661 5.9239173 4.1418661 5.8120484 C 4.1418661 5.7001796 4.1821443 5.6048416 4.262789 5.5267945 C 4.346039 5.4461465 4.4449467 5.4058717 4.5594117 5.4058717 z " />
</svg>
