<?xml version="1.0" encoding="UTF-8" standalone="no"?>
<!-- Created with Inkscape (http://www.inkscape.org/) -->

<svg
   width="32"
   height="32"
   viewBox="0 0 8.4666668 8.4666668"
   version="1.1"
   id="svg1"
   sodipodi:docname="toolbar-icon-on.svg"
   inkscape:version="1.4.3 (0d15f75, 2025-12-25)"
   xmlns:inkscape="http://www.inkscape.org/namespaces/inkscape"
   xmlns:sodipodi="http://sodipodi.sourceforge.net/DTD/sodipodi-0.dtd"
   xmlns="http://www.w3.org/2000/svg"
   xmlns:svg="http://www.w3.org/2000/svg">
  <sodipodi:namedview
     id="namedview1"
     pagecolor="#ffffff"
     bordercolor="#000000"
     borderopacity="0.25"
     inkscape:showpageshadow="2"
     inkscape:pageopacity="0.0"
     inkscape:pagecheckerboard="0"
     inkscape:deskcolor="#d1d1d1"
     inkscape:zoom="26.386805"
     inkscape:cx="25.732558"
     inkscape:cy="17.925626"
     inkscape:window-width="3440"
     inkscape:window-height="1321"
     inkscape:window-x="0"
     inkscape:window-y="0"
     inkscape:window-maximized="1"
     inkscape:current-layer="svg1" />
  <defs
     id="defs1" />
  <path
     id="text1"
     style="font-size:3.175px;font-family:'SF Pro';-inkscape-font-specification:'SF Pro';text-align:center;text-anchor:middle;stroke-width:0.649335;stroke-linecap:round;stroke-opacity:0.501437"
     d="m 3.8690146,0.59531251 c -0.1440732,0 -0.2808877,0.0144269 -0.4103108,0.0434082 C 3.3317231,0.66770198 3.2095305,0.71698049 3.0923178,0.78548178 2.9775469,0.85398308 2.869976,0.94504273 2.7698568,1.0583334 l -2.15749105,2.418457 c -0.080585,0.086944 -0.146124,0.1720057 -0.197404,0.2563151 -0.05128,0.084309 -0.089269,0.1674057 -0.1136881,0.2490804 -0.024419,0.07904 -0.03669,0.1606368 -0.03669,0.2449463 0,0.1211942 0.028068,0.2441066 0.084233,0.3679362 0.056165,0.1211947 0.1438957,0.2485544 0.2635498,0.3829224 L 2.7734743,7.3850791 c 0.1001192,0.1132907 0.20769,0.2053321 0.3224608,0.2764689 0.1172132,0.071136 0.2394059,0.1223789 0.366386,0.1539957 0.1294228,0.034251 0.2662374,0.051677 0.4103108,0.051677 l 3.1791344,0.00413 c 0.383383,0 0.670458,-0.1030044 0.860929,-0.3085083 0.192913,-0.2028725 0.289388,-0.5083631 0.289388,-0.9167363 V 1.8205607 c 0,-0.4083732 -0.09648,-0.7138707 -0.2893881,-0.91673988 C 7.7222242,0.69831679 7.4351492,0.59531251 7.0517662,0.59531251 Z M 4.6922201,2.2489584 c 0.2211271,0 0.4255741,0.039256 0.6128821,0.1173055 0.1873071,0.075446 0.337703,0.1870883 0.452169,0.33538 0.117068,0.1482912 0.1757001,0.330287 0.1757001,0.5462199 0,0.2341454 -0.06119,0.4192046 -0.183451,0.5544881 -0.122276,0.1352832 -0.276748,0.2652796 -0.464055,0.3901571 -0.137879,0.091054 -0.2393351,0.1766987 -0.304374,0.2573487 -0.06504,0.078049 -0.09767,0.1718527 -0.09767,0.2811198 v 0.023254 0.023254 c 0,0.075449 -0.02855,0.1407035 -0.08578,0.195337 -0.05463,0.054635 -0.1300865,0.082166 -0.226343,0.082166 -0.2081187,0 -0.3121258,-0.1029815 -0.3121258,-0.3085083 V 4.723226 4.6958375 c 0,-0.1925185 0.045374,-0.347499 0.136426,-0.4645712 0.093654,-0.1170741 0.210919,-0.2236164 0.3513997,-0.3198771 0.171699,-0.1196744 0.299158,-0.2211232 0.382406,-0.3043742 0.08325,-0.085855 0.12454,-0.1949475 0.12454,-0.3276286 0,-0.1482912 -0.05302,-0.2680953 -0.15968,-0.3591512 -0.106663,-0.093658 -0.249929,-0.1405599 -0.4294316,-0.1405599 -0.085852,0 -0.1664036,0.014263 -0.2418457,0.042892 -0.072842,0.028618 -0.1391204,0.070422 -0.1989543,0.1250569 -0.059834,0.052034 -0.1133718,0.1157561 -0.1601969,0.1912028 l -0.07028,0.093534 c -0.033819,0.046829 -0.074096,0.084551 -0.1209229,0.1131714 -0.044227,0.028618 -0.098777,0.042891 -0.1638142,0.042891 -0.065038,0 -0.1262167,-0.021906 -0.1834514,-0.066146 -0.057234,-0.046826 -0.085784,-0.114634 -0.085784,-0.2030879 0,-0.03382 0.00252,-0.066451 0.00775,-0.097669 0.00523,-0.03122 0.01286,-0.062313 0.023256,-0.093534 C 3.5252193,2.7484746 3.6582934,2.5909477 3.8690146,2.4556641 4.0823362,2.3177791 4.3566273,2.2489584 4.6922201,2.2489584 Z M 4.5594117,5.4058717 c 0.1144651,0 0.2133736,0.039256 0.2966225,0.1173055 0.08325,0.078048 0.125057,0.1744019 0.125057,0.2888712 0,0.1144707 -0.04181,0.2103068 -0.125057,0.2883545 -0.08325,0.078048 -0.1821563,0.1173064 -0.2966225,0.1173055 -0.1118627,0 -0.2092406,-0.039256 -0.2924885,-0.1173055 -0.083247,-0.080648 -0.1250571,-0.1764856 -0.1250571,-0.2883545 0,-0.1118688 0.040278,-0.2072068 0.1209229,-0.2852539 0.083247,-0.080648 0.1821573,-0.1209228 0.2966227,-0.1209228 z" />
</svg>
