<?xml version="1.0" encoding="UTF-8" standalone="no"?>
<!-- Created with Inkscape (http://www.inkscape.org/) -->

<svg
   width="32"
   height="32"
   viewBox="0 0 8.4666668 8.4666668"
   version="1.1"
   id="svg1"
   sodipodi:docname="toolbar-icon.svg"
   inkscape:version="1.4.3 (0d15f75, 2025-12-25)"
   xmlns:inkscape="http://www.inkscape.org/namespaces/inkscape"
   xmlns:sodipodi="http://sodipodi.sourceforge.net/DTD/sodipodi-0.dtd"
   xmlns="http://www.w3.org/2000/svg"
   xmlns:svg="http://www.w3.org/2000/svg">
  <sodipodi:namedview
     id="namedview1"
     pagecolor="#ffffff"
     bordercolor="#000000"
     borderopacity="0.25"
     inkscape:showpageshadow="2"
     inkscape:pageopacity="0.0"
     inkscape:pagecheckerboard="0"
     inkscape:deskcolor="#d1d1d1"
     inkscape:zoom="24.06732"
     inkscape:cx="12.838986"
     inkscape:cy="15.872145"
     inkscape:window-width="3440"
     inkscape:window-height="1321"
     inkscape:window-x="0"
     inkscape:window-y="0"
     inkscape:window-maximized="0"
     inkscape:current-layer="svg1" />
  <defs
     id="defs1" />
  <path
     d="m 7.0519337,7.8713543 -3.1793951,-0.00395 c -0.1440735,0 -0.2808218,-0.017127 -0.4102447,-0.051379 C 3.3353138,7.7844074 3.2132172,7.7330279 3.0960043,7.6618878 2.981233,7.5907476 2.873788,7.4985291 2.7736692,7.3852322 L 0.61255922,4.9783272 C 0.49290515,4.8439515 0.40499562,4.716163 0.34883062,4.5949616 0.29266575,4.4711249 0.26458332,4.3486059 0.26458332,4.2274047 c 0,-0.084313 0.0122097,-0.1659925 0.036629,-0.2450373 0.0244193,-0.081679 0.0622692,-0.1646758 0.1135497,-0.24899 0.05128,-0.084314 0.1172123,-0.1699456 0.1977969,-0.2568944 L 2.7700059,1.0577224 C 2.8701251,0.94442528 2.9775701,0.85352428 3.0923409,0.78501908 3.2095536,0.71651389 3.3316502,0.66776982 3.4586307,0.63878689 3.5880523,0.60980398 3.7248005,0.59531252 3.8688753,0.59531252 h 3.1830582 c 0.3833833,0 0.6703103,0.10275775 0.8607811,0.30827346 C 8.1056272,1.1064667 8.2020835,1.4121052 8.2020835,1.8205017 v 4.8256642 c 0,0.4083964 -0.096456,0.714035 -0.2893689,0.9169158 C 7.7222438,7.7685972 7.4353168,7.8713548 7.0519337,7.8713543 Z m -0.00732,-0.6363079 c 0.1831449,0 0.323556,-0.051378 0.4212333,-0.1541357 C 7.563525,6.9755173 7.6123635,6.8200635 7.6123635,6.6145483 V 1.8521187 c 0,-0.2055156 -0.048839,-0.3596523 -0.1465165,-0.4624101 C 7.3681663,1.2843159 7.2277538,1.2316197 7.0446093,1.2316197 H 3.8578869 c -0.1367476,0 -0.2551813,0.017127 -0.355301,0.051379 -0.097678,0.034253 -0.1941341,0.1040749 -0.2893691,0.2094679 L 1.0704217,3.8914659 C 0.9629765,4.017937 0.90925392,4.1299166 0.90925392,4.2274047 c 0,0.050062 0.010989,0.1014411 0.032967,0.1541357 0.0244193,0.050062 0.0671529,0.1093453 0.12820088,0.1778495 l 2.146458,2.3910949 c 0.095235,0.1053934 0.191691,0.1791684 0.289369,0.221326 0.097678,0.042157 0.2161114,0.063236 0.3553011,0.063236 z"
     id="text3"
     style="font-size:3.175px;font-family:'SF Pro';-inkscape-font-specification:'SF Pro';text-align:center;text-anchor:middle;fill:#000000;stroke-width:0.649354;stroke-linecap:round;stroke-opacity:0.501437"
     aria-label="􁂈"
     sodipodi:nodetypes="cccccccscsccccsscssccscsscsscccscccsss" />
  <path
     d="M 4.5712367,5.0547906 C 4.363118,5.0547906 4.2590579,4.9520268 4.2590579,4.7465 V 4.723091 4.695774 c 0,-0.1925185 0.045526,-0.3473145 0.1365777,-0.4643867 C 4.4892898,4.1143132 4.6063568,4.00765 4.7468374,3.9113893 4.9185361,3.7917149 5.0460093,3.6902527 5.129257,3.6070017 5.212504,3.5211467 5.254129,3.4118804 5.254129,3.2791993 5.254129,3.1309081 5.200799,3.0112333 5.0941369,2.9201774 4.9874744,2.8265194 4.8443924,2.7796913 4.6648897,2.7796913 c -0.085852,0 -0.1664962,0.014297 -0.2419384,0.042925 -0.072842,0.028618 -0.1391807,0.070242 -0.1990146,0.1248772 -0.059834,0.052034 -0.1131668,0.1157703 -0.1599919,0.191217 l -0.07024,0.093657 c -0.033819,0.046829 -0.074143,0.08455 -0.1209702,0.1131703 -0.044227,0.028618 -0.098856,0.042925 -0.1638934,0.042925 -0.065038,0 -0.1261712,-0.022102 -0.1834058,-0.066342 -0.057233,-0.046827 -0.085852,-0.1144703 -0.085852,-0.2029242 0,-0.03382 0.00258,-0.066342 0.00781,-0.097559 0.00523,-0.031221 0.013014,-0.062438 0.02341,-0.093659 0.05463,-0.1795121 0.187307,-0.3369079 0.3980282,-0.4721915 0.2133217,-0.137885 0.4877802,-0.2068288 0.823373,-0.2068288 0.2211272,0 0.4253442,0.039024 0.6126522,0.1170738 0.187307,0.075446 0.338194,0.1873155 0.45266,0.3356072 0.117068,0.1482912 0.1756,0.3304044 0.1756,0.5463373 0,0.2341454 -0.06114,0.4188585 -0.183406,0.554142 -0.122276,0.1352832 -0.277065,0.2653644 -0.464372,0.3902419 -0.1378796,0.091054 -0.2393363,0.1769092 -0.304375,0.2575592 -0.065037,0.078049 -0.097555,0.1717061 -0.097555,0.2809732 v 0.02341 0.023409 c 0,0.075449 -0.028617,0.1404877 -0.085848,0.1951212 -0.05463,0.054635 -0.1300737,0.081951 -0.22633,0.081951 z m -0.011709,1.1629178 c -0.1118629,0 -0.20942,-0.039024 -0.2926678,-0.1170738 -0.083247,-0.080648 -0.124872,-0.1769094 -0.124872,-0.2887783 0,-0.1118688 0.040325,-0.2068289 0.1209701,-0.284876 0.083247,-0.080648 0.1821045,-0.1209754 0.2965699,-0.1209754 0.114465,0 0.2133217,0.039024 0.2965706,0.1170739 0.083247,0.078048 0.1248717,0.1743091 0.1248717,0.2887784 0,0.1144707 -0.041624,0.2107306 -0.1248717,0.2887783 -0.083246,0.078048 -0.1821045,0.1170738 -0.2965708,0.1170729 z"
     id="text2"
     style="font-size:3.175px;font-family:'SF Pro';-inkscape-font-specification:'SF Pro';text-align:center;text-anchor:middle;fill:#000000;stroke-width:0.665997;stroke-linecap:round;stroke-opacity:0.501437"
     aria-label="􀁜"
     sodipodi:nodetypes="cscscccscscccccscssccsccssccscscccscscsssss" />
</svg>
